<?xml version="1.0" standalone="no"?>
<!DOCTYPE svg PUBLIC "-//W3C//DTD SVG 20010904//EN"
 "http://www.w3.org/TR/2001/REC-SVG-20010904/DTD/svg10.dtd">
<svg version="1.0" xmlns="http://www.w3.org/2000/svg"
 width="656.000000pt" height="656.000000pt" viewBox="0 0 656.000000 656.000000"
 preserveAspectRatio="xMidYMid meet">
<metadata>
Created by potrace 1.14, written by Peter Selinger 2001-2017
</metadata>
<g transform="translate(0.000000,656.000000) scale(0.100000,-0.100000)"
fill="#000000" stroke="none">
<path d="M2956 6403 c-1 -1 -24 -5 -52 -8 -27 -3 -56 -7 -64 -9 -8 -1 -33 -6
-55 -11 -38 -8 -84 -25 -165 -63 -127 -58 -282 -201 -357 -328 -40 -69 -87
-177 -97 -224 -3 -14 -8 -36 -11 -50 -9 -43 -16 -148 -20 -325 -3 -144 -7
-210 -15 -210 -1 0 -3 -9 -4 -20 -2 -11 -11 -47 -21 -80 -10 -33 -18 -63 -17
-67 1 -5 -3 -8 -8 -8 -6 0 -10 -7 -10 -16 0 -9 -18 -49 -40 -90 -156 -281
-414 -469 -723 -525 -34 -6 -145 -12 -247 -14 -102 -1 -205 -6 -228 -9 -109
-18 -246 -73 -343 -137 -89 -59 -206 -181 -249 -257 -8 -15 -17 -29 -20 -32
-22 -20 -79 -173 -95 -252 -3 -16 -7 -39 -10 -52 -19 -93 0 -310 34 -391 5
-11 19 -46 31 -77 42 -109 145 -244 250 -329 71 -56 189 -122 260 -144 112
-35 149 -40 290 -39 108 0 150 4 212 22 70 20 205 76 218 91 3 3 17 12 31 19
41 21 131 101 189 168 55 64 142 216 156 274 2 8 10 40 19 70 19 67 25 142 29
365 2 94 6 179 9 190 39 152 48 178 94 275 74 154 214 309 368 408 31 20 171
88 197 97 12 4 28 9 33 10 113 37 196 47 410 50 194 3 224 6 324 37 104 32
204 86 294 158 95 76 196 210 241 320 10 25 22 54 27 65 36 83 56 292 38 405
-21 136 -86 296 -162 395 -29 39 -119 129 -168 170 -75 62 -241 139 -349 160
-62 12 -217 25 -224 18z"/>
<path d="M5137 6174 c-1 -2 -16 -5 -32 -8 -54 -10 -69 -14 -128 -35 -193 -67
-365 -213 -466 -392 -38 -69 -86 -198 -96 -259 -7 -48 -17 -165 -16 -190 4
-79 3 -179 -3 -189 -4 -6 -3 -11 3 -11 6 0 8 -6 6 -12 -3 -7 -9 -40 -14 -73
-13 -83 -19 -110 -42 -179 -23 -68 -83 -193 -105 -217 -8 -8 -14 -19 -14 -23
0 -12 -69 -95 -130 -157 -112 -113 -290 -218 -436 -258 -102 -27 -161 -34
-334 -36 -213 -3 -269 -9 -359 -38 -36 -11 -68 -21 -71 -22 -24 -6 -92 -42
-147 -78 -89 -58 -163 -126 -220 -201 -54 -72 -127 -221 -143 -291 -7 -27 -14
-59 -17 -70 -4 -20 -14 -136 -14 -165 6 -262 -12 -400 -70 -535 -7 -16 -13
-32 -13 -35 -1 -3 -20 -40 -44 -82 -131 -239 -359 -418 -622 -489 -103 -28
-129 -31 -330 -34 -107 -2 -208 -6 -225 -9 -65 -13 -81 -16 -108 -22 -16 -3
-40 -12 -55 -20 -15 -8 -33 -14 -39 -14 -12 0 -134 -63 -157 -81 -127 -98
-217 -194 -258 -274 -11 -22 -24 -42 -28 -45 -8 -6 -36 -76 -60 -150 -50 -154
-45 -395 10 -535 68 -173 170 -313 293 -402 29 -21 54 -40 57 -43 6 -8 144
-73 185 -88 106 -39 294 -57 410 -39 214 32 421 154 558 327 42 54 110 178
131 240 16 47 44 174 45 200 0 8 2 105 5 215 4 199 10 240 60 390 10 31 18 52
27 65 4 8 18 36 30 62 12 27 25 48 30 48 5 0 9 6 9 14 0 35 182 231 265 285
22 14 42 29 45 33 15 19 196 100 275 122 114 32 169 37 396 41 194 2 198 3
305 36 281 87 495 315 571 608 21 84 25 122 28 306 2 116 6 221 9 235 3 14 9
38 11 54 3 16 10 37 16 47 5 11 8 19 5 19 -8 0 29 101 59 160 127 253 343 439
613 525 118 38 181 46 418 49 98 2 190 6 204 10 14 4 38 10 55 13 72 13 199
71 290 133 55 38 144 124 192 187 55 70 127 221 149 313 28 113 24 373 -6 429
-4 9 -8 18 -7 21 1 13 -28 90 -55 145 -60 120 -177 253 -288 327 -151 101
-311 148 -502 146 -59 -1 -109 -2 -111 -4z"/>
<path d="M5447 3904 c-1 -2 -25 -5 -53 -8 -187 -18 -399 -126 -530 -269 -102
-112 -185 -271 -210 -401 -2 -12 -7 -34 -10 -51 -4 -16 -8 -120 -10 -230 -4
-213 -4 -211 -23 -295 -25 -105 -95 -280 -113 -280 -4 0 -8 -5 -8 -11 0 -22
-88 -137 -157 -205 -143 -141 -344 -249 -519 -279 -76 -13 -112 -15 -309 -19
-224 -5 -287 -17 -425 -83 -263 -126 -456 -392 -485 -668 -29 -274 54 -522
235 -705 91 -92 111 -108 186 -152 145 -84 257 -113 439 -112 77 0 149 3 160
6 11 4 34 9 50 13 93 22 232 88 310 148 143 110 261 281 308 447 27 95 29 111
32 290 3 164 10 271 20 316 16 68 29 113 41 141 8 17 14 35 14 40 0 15 70 144
110 203 46 68 147 173 219 229 53 41 196 125 216 126 6 1 26 8 45 17 39 18
133 44 195 54 22 3 129 7 237 9 108 2 201 6 206 9 4 3 31 8 58 12 27 3 57 10
67 16 10 5 28 11 40 13 31 7 187 85 207 105 3 3 21 17 40 32 199 150 324 401
330 663 4 161 -32 294 -125 465 -26 47 -108 146 -159 190 -58 51 -172 129
-196 135 -3 1 -23 9 -44 18 -36 16 -129 46 -166 54 -34 7 -219 21 -223 17z"/>
</g>
</svg>
